<mxfile host="app.diagrams.net" modified="2023-09-07T05:22:14.941Z" agent="Mozilla/5.0 (Windows NT 10.0; Win64; x64) AppleWebKit/537.36 (KHTML, like Gecko) Chrome/116.0.0.0 Safari/537.36" etag="KgPhc20CradebM0dEAHM" version="21.5.0" type="github">
  <diagram name="Page-1" id="j-eDqDpKoLgPAk3GTxfP">
    <mxGraphModel dx="2284" dy="1890" grid="1" gridSize="10" guides="1" tooltips="1" connect="1" arrows="1" fold="1" page="1" pageScale="1" pageWidth="850" pageHeight="1100" math="0" shadow="0">
      <root>
        <mxCell id="0" />
        <mxCell id="1" parent="0" />
        <mxCell id="VZrlg-Crpo96Uy3mQfim-3" style="edgeStyle=orthogonalEdgeStyle;rounded=0;orthogonalLoop=1;jettySize=auto;html=1;entryX=0;entryY=0.5;entryDx=0;entryDy=0;" edge="1" parent="1" source="VZrlg-Crpo96Uy3mQfim-1" target="VZrlg-Crpo96Uy3mQfim-2">
          <mxGeometry relative="1" as="geometry" />
        </mxCell>
        <mxCell id="VZrlg-Crpo96Uy3mQfim-1" value="&lt;b&gt;Authorization&lt;br&gt;Notification&lt;/b&gt;" style="rounded=0;whiteSpace=wrap;html=1;" vertex="1" parent="1">
          <mxGeometry x="-40" y="-320" width="120" height="60" as="geometry" />
        </mxCell>
        <mxCell id="VZrlg-Crpo96Uy3mQfim-6" style="edgeStyle=orthogonalEdgeStyle;rounded=0;orthogonalLoop=1;jettySize=auto;html=1;entryX=0;entryY=0.5;entryDx=0;entryDy=0;" edge="1" parent="1" source="VZrlg-Crpo96Uy3mQfim-2" target="VZrlg-Crpo96Uy3mQfim-5">
          <mxGeometry relative="1" as="geometry" />
        </mxCell>
        <mxCell id="VZrlg-Crpo96Uy3mQfim-10" style="edgeStyle=orthogonalEdgeStyle;rounded=0;orthogonalLoop=1;jettySize=auto;html=1;entryX=0;entryY=0.5;entryDx=0;entryDy=0;" edge="1" parent="1" source="VZrlg-Crpo96Uy3mQfim-2" target="VZrlg-Crpo96Uy3mQfim-8">
          <mxGeometry relative="1" as="geometry" />
        </mxCell>
        <mxCell id="VZrlg-Crpo96Uy3mQfim-12" style="edgeStyle=orthogonalEdgeStyle;rounded=0;orthogonalLoop=1;jettySize=auto;html=1;entryX=0;entryY=0.5;entryDx=0;entryDy=0;" edge="1" parent="1" source="VZrlg-Crpo96Uy3mQfim-2" target="VZrlg-Crpo96Uy3mQfim-11">
          <mxGeometry relative="1" as="geometry" />
        </mxCell>
        <mxCell id="VZrlg-Crpo96Uy3mQfim-2" value="&lt;b&gt;RewardCreated&lt;/b&gt;" style="rounded=0;whiteSpace=wrap;html=1;" vertex="1" parent="1">
          <mxGeometry x="200" y="-320" width="120" height="60" as="geometry" />
        </mxCell>
        <mxCell id="VZrlg-Crpo96Uy3mQfim-4" value="&lt;b&gt;Campaign Service&lt;/b&gt;" style="text;html=1;strokeColor=none;fillColor=none;align=center;verticalAlign=middle;whiteSpace=wrap;rounded=0;" vertex="1" parent="1">
          <mxGeometry x="90" y="-360" width="110" height="30" as="geometry" />
        </mxCell>
        <mxCell id="VZrlg-Crpo96Uy3mQfim-5" value="RewardCreated event stored in Rewards Service" style="rounded=0;whiteSpace=wrap;html=1;" vertex="1" parent="1">
          <mxGeometry x="440" y="-320" width="120" height="60" as="geometry" />
        </mxCell>
        <mxCell id="VZrlg-Crpo96Uy3mQfim-7" value="&lt;b&gt;Rewards Service&lt;/b&gt;" style="text;html=1;strokeColor=none;fillColor=none;align=center;verticalAlign=middle;whiteSpace=wrap;rounded=0;" vertex="1" parent="1">
          <mxGeometry x="445" y="-350" width="110" height="30" as="geometry" />
        </mxCell>
        <mxCell id="VZrlg-Crpo96Uy3mQfim-8" value="listen for RewardCreated event&lt;br&gt;for enrich authorization transaction" style="rounded=0;whiteSpace=wrap;html=1;" vertex="1" parent="1">
          <mxGeometry x="445" y="-120" width="120" height="90" as="geometry" />
        </mxCell>
        <mxCell id="VZrlg-Crpo96Uy3mQfim-9" value="&lt;b&gt;Transaction History&lt;/b&gt;" style="text;html=1;strokeColor=none;fillColor=none;align=center;verticalAlign=middle;whiteSpace=wrap;rounded=0;" vertex="1" parent="1">
          <mxGeometry x="445" y="-150" width="120" height="30" as="geometry" />
        </mxCell>
        <mxCell id="VZrlg-Crpo96Uy3mQfim-11" value="listen for&lt;br&gt;RewardCreated event for send Push Notification" style="rounded=0;whiteSpace=wrap;html=1;" vertex="1" parent="1">
          <mxGeometry x="440" y="-500" width="120" height="60" as="geometry" />
        </mxCell>
      </root>
    </mxGraphModel>
  </diagram>
</mxfile>
